#define iconify_width  10
#define iconify_height 10
static unsigned char iconify_bits[] = {
 0x00,0xfc,0x00,0xfc,0x00,0xfc,0x01,0xfe,0x01,0xfe,0xff,0xff,
 0x01,0xfe,0x01,0xfe,0x00,0xfc,0x00,0xfc};
